<?xml version="1.0" encoding="UTF-8" standalone="no"?>
<!-- Created with Inkscape (http://www.inkscape.org/) -->

<svg
   width="300mm"
   height="100mm"
   viewBox="0 0 300 100"
   version="1.1"
   id="svg1"
   xml:space="preserve"
   inkscape:version="1.3 (0e150ed6c4, 2023-07-21)"
   sodipodi:docname="logo.svg"
   xmlns:inkscape="http://www.inkscape.org/namespaces/inkscape"
   xmlns:sodipodi="http://sodipodi.sourceforge.net/DTD/sodipodi-0.dtd"
   xmlns="http://www.w3.org/2000/svg"
   xmlns:svg="http://www.w3.org/2000/svg"><sodipodi:namedview
     id="namedview1"
     pagecolor="#ffffff"
     bordercolor="#000000"
     borderopacity="0.25"
     inkscape:showpageshadow="2"
     inkscape:pageopacity="0.0"
     inkscape:pagecheckerboard="0"
     inkscape:deskcolor="#d1d1d1"
     inkscape:document-units="mm"
     inkscape:zoom="1"
     inkscape:cx="708"
     inkscape:cy="81.5"
     inkscape:window-width="1920"
     inkscape:window-height="1009"
     inkscape:window-x="-8"
     inkscape:window-y="-8"
     inkscape:window-maximized="1"
     inkscape:current-layer="layer1" /><defs
     id="defs1" /><g
     inkscape:label="图层 1"
     inkscape:groupmode="layer"
     id="layer1"><path
       d="M 98.834527,9.5641124 C 98.185723,7.6176994 97.104383,5.8875542 95.806775,4.3736768 93.427824,1.7784589 90.183803,0.26458333 86.939781,0.26458333 H 13.192354 c -0.648803,0 -1.08134,0 -1.513876,0.21626768 C 8.4344565,0.69711869 5.4067028,2.4272638 3.4602902,4.806214 1.5138777,7.1851622 0.21626689,9.9966477 -3.3666667e-7,13.024402 V 68.38904 c 0,0.432534 0,0.865071 0.21626722666667,1.513877 0.21626972,2.811485 1.29761081,5.406702 3.02775491,7.353115 1.9464138,2.595217 4.9741662,4.325362 8.2181872,4.757899 1.297609,0.216268 2.595217,0.216268 3.892827,0.216268 H 47.362717 V 94.557481 H 16.868911 c -1.081339,0 -2.162679,0.865072 -2.378948,1.730145 -0.432537,1.297608 0,2.595218 1.297609,3.244021 0.216267,0.21627 1.081339,0.21627 1.730145,0.21627 h 64.664166 c 0.648804,0 1.08134,0 1.730144,-0.21627 1.081341,-0.432536 1.730146,-1.730143 1.513878,-2.811485 -0.216269,-1.08134 -0.865072,-1.946413 -1.730145,-2.162681 -0.432537,-0.216268 -1.08134,-0.216268 -1.513877,-0.216268 h -29.845 V 82.013931 h 32.872753 c 1.081342,0 1.946412,0 3.027755,-0.216269 1.946412,-0.216268 3.892826,-1.08134 5.406702,-2.162681 2.595217,-1.946413 4.757897,-4.974165 5.406703,-8.218189 0.216267,-0.865072 0.216267,-1.730145 0.432537,-2.595218 V 13.456938 C 99.267063,12.15933 99.267063,10.86172 98.834527,9.5641124 Z M 78.289057,64.279946 H 26.600978 c -2.162682,0 -3.676558,-1.513878 -3.676558,-3.676559 V 23.62154 c 0,-2.162681 1.513876,-3.676559 3.676558,-3.676559 2.162681,0 3.676557,1.513878 3.676557,3.676559 v 33.305289 h 48.011522 c 2.162681,0 3.676558,1.513876 3.676558,3.676558 0,2.162681 -1.513877,3.676559 -3.676558,3.676559 z m 3.676558,-29.628733 c 0,2.162681 -1.513877,3.676558 -3.676558,3.676558 -2.162681,0 -3.676558,-1.513877 -3.676558,-3.676558 v -2.162681 l -16.00384,16.003842 c -0.648805,0.648803 -1.513878,1.081339 -2.595218,1.081339 -1.081341,0 -1.946414,-0.432536 -2.595218,-1.081339 l -4.757899,-4.974169 -8.434456,8.434457 c -0.648805,0.648805 -1.513878,1.081342 -2.595218,1.081342 -2.162681,0 -3.676557,-1.513878 -3.676557,-3.676558 0,-1.081342 0.432536,-1.946414 1.081342,-2.595218 L 46.065107,35.732553 c 0.648804,-0.648804 1.513877,-1.08134 2.595217,-1.08134 1.081341,0 1.946414,0.432536 2.595218,1.08134 l 4.757899,4.757899 13.408622,-13.408623 h -2.16268 c -2.162681,0 -3.676559,-1.513877 -3.676559,-3.676558 0,-2.162682 1.513878,-3.676558 3.676559,-3.676558 h 11.029674 c 2.162681,0 3.676558,1.513879 3.676558,3.676558 z"
       p-id="4138"
       fill="#1296db"
       id="path1"
       style="stroke-width:0.0971517" /><path
       style="font-size:47.8786px;font-family:STXinwei;-inkscape-font-specification:'STXinwei, Normal';fill:#1296db;stroke-width:0.942493"
       d="m 146.8315,49.932913 q 0,1.675751 -0.19152,3.016352 -0.19151,1.3406 -0.4309,1.819386 -0.2394,0.478786 -0.95758,0.478786 -0.71818,0 -3.30362,-1.244843 -2.53757,-1.196965 -5.21877,-3.399381 -2.63332,-2.202416 -4.21331,-4.692103 -0.43091,-0.6703 -0.6703,-0.6703 -0.2394,0 -0.57455,0.239393 -0.33515,0.191514 -1.19696,0.191514 -1.67575,0 -2.6812,0.383029 -0.95758,0.383029 -1.81939,0.383029 -0.86182,0 -0.86182,-0.33515 0,-0.335151 1.00545,-1.05333 1.05333,-0.718179 2.39393,-1.819386 1.38848,-1.101208 1.58,-1.340601 0.23939,-0.287272 0.23939,-0.478786 0,-0.239393 -0.23939,-0.670301 -1.72363,-2.968473 -3.39938,-10.054506 -0.19152,-0.718179 -0.52667,-0.718179 -0.33515,0 -3.3515,1.005451 -2.96847,1.00545 -4.50059,1.244843 -1.48423,0.191515 -1.77151,0.574544 -0.28727,0.383028 -0.28727,1.3406 0,0.957572 0.19152,1.101208 0.19151,0.143636 0.81393,0.143636 0.62243,0 1.81939,-0.33515 1.24484,-0.383029 2.48969,-0.383029 1.24484,0 2.72908,0.33515 1.48423,0.287272 1.48423,0.813936 0,0.191515 -0.28727,0.670301 -0.28727,0.430907 -0.52666,1.963022 -0.19152,1.532116 -1.05333,3.973924 -0.81394,2.441809 -1.53212,3.495138 -0.6703,1.005451 -1.24484,2.298173 -0.28727,0.622422 -0.71818,0.622422 -0.38303,0 -2.34605,-1.579994 -1.96302,-1.627872 -1.96302,-2.298173 0,-0.287271 0.6703,-0.239393 0.71818,0.04788 1.43636,0.04788 0.76605,0 1.38847,-0.574543 0.62243,-0.574544 1.24485,-2.346052 0.62242,-1.819387 0.62242,-3.399381 0,-1.00545 -0.62242,-1.244843 -0.57454,-0.239393 -1.67575,-0.239393 -1.05333,0 -2.39393,0.957572 -1.3406,0.909693 -2.05878,2.968473 -0.6703,2.010901 -0.6703,3.064231 0,1.00545 -0.57455,1.627872 -0.57454,0.574543 -2.72908,1.532115 -2.10665,0.957572 -3.63877,0.957572 -0.71818,0 -0.71818,-0.239393 0,-0.239393 0.81394,-0.813936 3.87816,-2.920595 5.02725,-6.128461 1.14909,-3.255745 1.14909,-6.607247 0,-1.963023 -0.28728,-2.824837 -0.28727,-0.909694 -0.28727,-1.196965 0,-0.766058 1.24485,-0.861815 3.73453,-0.33515 4.64422,-0.670301 2.6812,-1.053329 6.2721,-2.010901 0.62242,-0.143636 0.62242,-0.6703 l -1.19697,-6.894519 q -0.57454,-3.543016 -0.76605,-3.926045 -0.19152,-0.383029 -0.19152,-0.574543 0,-0.574544 0.9097,-0.861815 0.90969,-0.33515 1.3406,-0.33515 0.4309,0 0.47878,0.239393 0.0958,0.191514 0.0958,1.053329 0,0.813936 0.57454,4.165438 0.57455,3.351502 0.9097,4.45271 0.38303,1.101208 0.4309,1.340601 0.2394,0.861815 0.76606,0.861815 l 0.81394,-0.09576 q 0.57454,0 1.10121,0.861814 0.57454,0.813937 0.57454,1.244844 0,0.957572 -0.95757,1.149086 -0.9097,0.143636 -0.9097,0.622422 0,0.478786 1.19697,4.45271 1.24484,3.926045 1.43636,4.309074 0.19151,0.383029 0.4309,0.383029 0.52667,0 1.72363,-2.298173 1.24485,-2.346051 1.53212,-3.255745 0.33515,-0.957572 0.71818,-0.957572 0.38303,0 1.19696,0.718179 0.86182,0.718179 0.86182,1.101208 0,0.33515 -0.43091,0.670301 -1.00545,0.813936 -1.43636,3.06423 -0.23939,1.244844 -0.90969,2.106658 -1.77151,2.106659 -1.77151,2.776959 0,0.622422 1.91514,3.351502 1.91515,2.729081 3.73454,4.069681 1.86726,1.38848 2.72908,1.38848 0.86181,0 1.62787,-2.872716 0.81393,-2.872716 0.81393,-5.936947 l -0.0958,-3.06423 q 0,-0.670301 0.19151,-0.670301 0.47879,0 1.3406,3.590896 0.86182,3.590895 0.86182,7.660576 z m -8.13936,-24.944751 q 0,0.33515 -0.28728,0.957572 -0.28727,0.622421 -1.62787,0.622421 -2.63332,0 -3.30362,-0.813936 -0.62242,-0.861815 -0.62242,-2.489687 0,-1.675751 0.62242,-2.154537 0.6703,-0.478786 1.05333,-0.478786 0.38303,0 0.62242,0.526664 0.28727,0.478786 1.29272,1.579994 1.00545,1.05333 1.62787,1.436358 0.62243,0.383029 0.62243,0.813937 z m 50.32041,3.73453 q 0.33515,0 0.47878,0.143636 0.19152,0.09576 0.6703,0.813936 0.52667,0.670301 0.6703,1.05333 0.14364,0.33515 0.14364,0.813936 0,0.430907 -0.14364,0.622422 -0.0958,0.143635 -0.38303,0.143635 -0.28727,0 -1.14908,-0.239393 -1.10121,-0.287271 -3.83029,-0.287271 -2.6812,0 -4.40483,0.09576 -1.72363,0.09576 -2.77696,0.33515 l -3.97393,0.861815 q -2.87271,0.622422 -5.07513,1.244844 -0.57454,0.143636 -0.95757,0.143636 -0.38303,0 -0.6703,-0.430908 -0.28727,-0.478786 -0.28727,-0.766057 0,-0.335151 0.90969,-0.526665 1.77151,-0.33515 3.15999,-0.861815 1.43636,-0.526665 2.44181,-0.766058 1.05333,-0.287271 1.24484,-0.622421 0.19152,-0.335151 0.19152,-1.149087 0,-0.622422 -0.62243,-0.622422 -0.81393,0 -1.57999,0.239393 -0.76606,0.191515 -1.10121,0.191515 -0.28727,0 -0.57454,-0.478786 -0.23939,-0.526665 -0.23939,-0.861815 0,-0.383029 0.4309,-0.622422 0.43091,-0.239393 1.77151,-0.622422 1.38848,-0.383028 1.77151,-0.574543 0.43091,-0.191514 0.43091,-1.579994 0,-0.6703 -0.38303,-0.6703 -0.33515,0 -1.67575,0.287272 -1.29272,0.239393 -1.53212,0.33515 -0.19151,0.09576 -0.52666,0.09576 -0.33515,0 -0.62242,-0.430907 -0.28727,-0.430908 -0.28727,-1.005451 0,-0.622422 0.90969,-0.670301 0.90969,-0.09576 2.44181,-0.526664 1.57999,-0.430908 1.77151,-0.909694 0.23939,-0.526664 0.47878,-2.633323 0.23939,-2.106658 0.23939,-3.830288 0,-1.723629 0.95758,-1.723629 0.52666,0 1.1012,0.383028 0.57455,0.383029 0.57455,0.670301 0,0.287271 -0.0479,0.574543 -0.19152,0.670301 -0.19152,5.218768 0,0.766057 0.28728,0.766057 0.28727,0 0.57454,-0.04788 2.15454,-0.526665 3.06423,-0.526665 1.14909,0 1.14909,0.718179 0,0.718179 -0.19152,1.005451 -0.19151,0.239393 -1.24484,0.718179 -1.00545,0.430907 -2.05878,0.622421 -1.00545,0.143636 -1.3406,0.335151 -0.28727,0.191514 -0.28727,0.813936 0,0.574543 0.14363,0.861815 0.19152,0.239393 0.71818,0.143636 1.77151,-0.287272 2.58545,-0.287272 0.81393,0 1.1012,0.287272 0.33515,0.287271 0.33515,0.909693 0,0.574543 -0.57454,0.909693 -0.57454,0.287272 -1.43636,0.478786 -0.81393,0.143636 -1.72363,0.430908 -0.86181,0.239393 -0.95757,0.574543 -0.0479,0.287272 -0.0479,0.861815 0,0.526664 0.14364,0.718179 0.19151,0.191514 0.6703,0.09576 1.91514,-0.33515 3.15999,-0.430907 3.63877,-0.143636 4.6921,-0.478786 1.10121,-0.335151 1.48424,-0.335151 z m -20.34841,-1.771508 q 0,0.383029 -0.47879,0.813936 -0.4309,0.430908 -1.24484,1.675751 -0.81394,1.196965 -3.97392,4.692103 -0.19152,0.239393 -0.19152,0.574544 0,0.622421 0.62242,0.622421 0.28728,0 0.9097,-0.191514 0.62242,-0.191514 1.00545,-0.430907 0.4309,-0.287272 0.62242,-0.287272 0.43091,0 0.43091,1.005451 0,1.00545 -0.28727,1.388479 -0.28728,0.33515 -1.10121,0.6703 -0.81394,0.335151 -3.01635,1.436358 -2.15454,1.101208 -2.68121,1.484237 -0.52666,0.33515 -1.05333,0.33515 -0.52666,0 -1.24484,-0.909693 -0.71818,-0.909694 -0.71818,-1.244844 0,-0.383029 1.14909,-0.909693 1.14908,-0.526665 1.67575,-1.053329 0.52666,-0.574544 1.43636,-1.867266 0.90969,-1.292722 0.90969,-1.388479 0,-0.191515 -0.38303,-0.191515 -0.33515,0 -1.57999,0.335151 -1.19697,0.33515 -2.39393,0.957572 -0.28727,0.143635 -0.57455,0.143635 -0.23939,0 -1.1012,-0.813936 -0.81394,-0.813936 -0.81394,-1.149086 0,-0.335151 0.47879,-0.526665 2.39393,-1.005451 4.16544,-4.739981 0.62242,-1.38848 2.05878,-3.686653 1.48423,-2.346051 2.25029,-3.255745 0.76606,-0.957572 1.19696,-0.957572 0.47879,0 1.29273,0.813937 0.86181,0.813936 0.86181,1.244843 0,0.383029 -0.81393,0.766058 -0.43091,0.239393 -0.76606,0.861815 -0.28727,0.574543 -1.62787,2.489687 -1.34061,1.867265 -2.01091,2.633323 -0.62242,0.766058 -0.62242,1.340601 0,0.574543 0.47879,0.574543 l 1.10121,-0.143636 q 1.38848,-0.09576 1.81938,-0.6703 1.62788,-2.154537 2.15454,-2.776959 0.57454,-0.622422 0.90969,-0.622422 0.33515,0 0.71818,0.33515 0.43091,0.287272 0.43091,0.622422 z m 12.92722,20.827192 q 0,0.239393 0.33515,0.430907 0.33515,0.191514 2.39393,1.196965 1.00545,0.478786 1.19697,0.813936 0.23939,0.383029 0.23939,1.436358 0,1.101208 -0.43091,2.250295 -0.4309,1.149086 -0.76605,1.149086 -0.33516,0 -0.67031,-0.287272 -0.28727,-0.287271 -2.58544,-3.159987 -2.25029,-2.872716 -2.72908,-3.44726 -0.43091,-0.574543 -0.43091,-0.957572 0,-0.383028 0.38303,-0.383028 0.38303,0 0.81394,0.239393 0.47878,0.191514 0.71818,0.191514 0.6703,0 0.6703,-2.010901 0,-2.010901 -0.2394,-5.314525 -0.19151,-3.351502 -0.90969,-3.878167 -0.71818,-0.574543 -1.81939,-0.574543 -1.1012,0 -2.29817,0.574543 -1.14909,0.526665 -1.53211,1.149087 -0.33515,0.622422 -0.76606,2.920594 -0.43091,2.298173 -0.6703,5.601797 -0.0479,0.909693 -0.38303,1.436358 -0.28727,0.478786 -0.86182,0.478786 -0.57454,0 -0.76605,-0.766058 -0.14364,-0.766057 -0.14364,-3.016352 0,-2.250294 0.33515,-4.739981 0.38303,-2.489687 0.52667,-2.920595 0.19151,-0.478786 0.52666,-0.574543 1.24484,-0.239393 1.81939,-0.478786 3.73453,-1.196965 5.3624,-1.196965 1.62787,0 3.11211,0.383029 1.53211,0.383029 1.81939,0.622422 0.33515,0.191514 0.23939,0.957572 -0.23939,2.489687 -0.0958,3.303623 0.14364,0.766058 0.14364,1.244844 0,0.430907 -0.0479,0.813936 -0.0479,0.383029 -0.0479,1.053329 l 0.14364,2.872716 q 0,1.532115 -1.24485,1.675751 -0.57454,0.04788 -0.95757,0.383029 -0.38303,0.287272 -0.38303,0.526665 z m -3.63877,-8.426634 q 0,0.33515 -0.14364,0.718179 -0.33515,0.957572 -0.33515,2.872716 0,1.915144 -1.3406,4.78786 -0.0958,0.143636 -0.19151,0.957572 -0.0958,0.861815 -0.0958,1.532115 0,1.915144 -2.48969,3.255745 -2.48968,1.38848 -4.64422,1.38848 -0.71818,0 -0.71818,-0.239393 0,-0.478786 2.39393,-2.441809 2.44181,-1.963023 3.39938,-3.590895 1.00545,-1.627873 1.19696,-3.207866 0.2394,-1.579994 0.33516,-5.697554 0.0479,-1.579994 0.57454,-1.579994 0.57454,0 1.29272,0.33515 0.76606,0.287272 0.76606,0.909694 z m -11.05996,0.478786 q 0.57454,0 0.57454,1.196965 0,0.478786 -0.47878,0.957572 -0.47879,0.430907 -2.72908,1.819387 -2.20242,1.340601 -4.2612,2.489687 -2.05878,1.101208 -2.39393,1.292722 -0.33515,0.191515 -0.76605,0.191515 -0.43091,0 -1.38848,-0.861815 -0.9097,-0.909694 -0.9097,-1.484237 0,-0.33515 0.6703,-0.478786 1.14909,-0.287271 1.67575,-0.574543 0.57455,-0.33515 1.77151,-0.6703 1.24485,-0.383029 2.20242,-1.101208 0.47878,-0.33515 3.11211,-1.532116 2.6812,-1.244843 2.92059,-1.244843 z m 76.46213,-2.010901 q 0,0.622421 -1.48424,0.861814 -1.48424,0.239393 -2.10666,0.239393 -1.81938,0 -4.6921,-1.101207 -2.87272,-1.101208 -3.3515,-1.340601 -0.47879,-0.287272 -0.6703,-0.287272 -0.95758,0 -1.38848,1.915144 -0.76606,3.543017 -1.48424,5.601797 -0.71818,2.058779 -1.77151,4.452709 -1.05333,2.346052 -1.81938,3.399381 -0.76606,1.053329 -0.95758,1.149087 -0.14363,0.143635 -0.33515,0.143635 -0.6703,0 -3.01635,-1.244843 -2.29817,-1.244844 -4.64422,-4.213317 -0.19152,-0.239393 -0.47879,-0.239393 -0.23939,0 -0.57454,0.33515 -1.24485,1.484237 -2.20242,2.05878 -0.95757,0.622422 -2.29817,0.813936 -1.29272,0.239393 -2.0109,0.239393 -0.71818,0 -0.71818,-0.33515 0,-0.33515 0.62242,-0.813936 4.78786,-3.638774 6.84664,-6.798762 2.10666,-3.159987 2.10666,-4.069681 0,-0.574543 -0.71818,-0.574543 -0.52666,0 -1.00545,0.478786 -0.23939,0.239393 -0.62242,0.239393 -0.38303,0 -1.19697,-1.005451 -0.76605,-1.053329 -0.76605,-1.627872 0,-0.574543 0.76605,-0.909693 0.76606,-0.335151 2.72908,-0.813937 2.0109,-0.526664 3.25575,-0.574543 1.29272,-0.09576 2.96847,-0.33515 1.72363,-0.287272 2.44181,-0.287272 0.71818,0 1.96302,0.239393 l 2.05878,0.430908 q 0.47879,0 0.47879,-1.005451 0,-1.053329 -0.52667,-1.915144 -0.52666,-0.861815 -0.86181,-1.196965 -1.91514,-1.72363 -3.54302,-4.165438 -0.4309,-0.670301 -1.57999,-1.963023 -1.14909,-1.340601 -1.72363,-1.771508 -0.52667,-0.430908 -0.71818,-0.766058 -0.14364,-0.383029 -0.14364,-1.053329 0,-2.489687 0.43091,-3.303623 0.43091,-0.813937 1.05333,-0.813937 0.86182,0 1.05333,1.244844 0.23939,1.196965 1.91514,4.021802 1.67576,2.824838 4.9315,6.272097 3.30362,3.399381 5.74543,4.78786 2.44181,1.340601 4.83574,2.872716 2.39393,1.532116 2.77696,2.010902 0.43091,0.430907 0.43091,0.718179 z m -23.07749,10.389656 q 1.24485,0 2.10666,-1.149086 0.90969,-1.149087 1.96302,-4.021803 1.10121,-2.920595 1.10121,-4.356953 0,-1.484236 -0.57454,-2.154537 -0.52667,-0.6703 -1.38848,-0.6703 -1.48424,0 -2.15454,1.436358 -1.72363,3.543016 -5.21877,8.235119 -0.14363,0.143636 -0.14363,0.383029 0,0.526665 1.62787,1.436358 1.67575,0.861815 2.6812,0.861815 z M 209.21731,33.893581 q 0.57455,-0.574543 2.2503,-3.447259 1.67575,-2.920595 2.63332,-5.12301 0.95757,-2.250295 1.96302,-2.250295 0.47879,0 1.34061,0.71818 0.90969,0.6703 0.90969,1.149086 0,0.430907 -0.6703,1.053329 -0.6703,0.622422 -1.29272,2.106659 -0.62243,1.436358 -1.14909,2.250294 -0.47879,0.813936 -1.96302,2.441809 -0.81394,0.909693 -0.81394,1.819386 l 0.0958,0.909694 q 0,0.861815 -2.2503,2.298173 -2.20241,1.388479 -3.63877,1.915144 -1.43636,0.526664 -2.10666,0.526664 -0.62242,0 -0.62242,-0.526664 0,-0.526665 1.38848,-1.915144 z m 72.63184,-4.883617 q 0.52667,0 1.38848,0.909693 0.86182,0.909694 1.29272,2.05878 0.43091,1.101208 0.43091,1.436358 0,0.670301 -1.05333,0.526665 -1.96302,-0.239393 -3.15999,-0.239393 -1.14908,0 -1.48423,0.191514 -0.28727,0.191515 -0.47879,0.909694 -0.14363,0.6703 -0.33515,3.830288 -0.19151,3.159988 -0.19151,8.330876 l 0.0479,6.128461 q 0,2.154537 -0.71818,2.729081 -0.6703,0.574543 -1.19697,0.574543 -0.52666,0 -0.76606,-0.718179 -0.19151,-0.718179 -0.33515,-4.45271 -0.0958,-3.734531 -0.0958,-6.942397 0,-3.255745 -0.38303,-5.984825 -0.33515,-2.776959 -0.6703,-3.303624 -0.28727,-0.526664 -0.76606,-0.526664 -0.43091,0 -1.77151,0.33515 -1.29272,0.33515 -1.67575,0.622422 -0.38303,0.239393 -0.6703,0.909693 -0.23939,0.622422 -0.52666,1.532115 -0.2394,0.909694 -0.28728,1.72363 0,0.813936 0,1.484236 0,0.670301 -0.47878,1.436359 -0.43091,0.718179 -2.2503,1.819386 -1.7715,1.101208 -2.92059,1.38848 -1.10121,0.287271 -1.3406,0.526664 -0.23939,0.191515 -0.23939,0.670301 0,0.478786 0.14363,1.244843 0.14364,0.718179 0.14364,1.149087 0,1.00545 -0.6703,1.00545 -0.6703,0 -1.62788,-0.287271 -0.95757,-0.287272 -1.05332,-0.622422 -0.0479,-0.33515 -0.0479,-0.766058 0,-0.383028 0.4309,-1.244843 0.14364,-0.239393 0.28728,-2.250294 0.14363,-2.010902 0.14363,-4.165439 0,-2.202415 -0.0958,-2.920594 -0.0479,-0.766058 -0.33515,-0.766058 -0.19151,0 -1.86726,1.244844 -1.62787,1.196965 -4.73998,4.021802 -1.72363,1.579994 -3.15999,1.579994 -0.86182,0 -0.86182,-0.526665 0,-0.574543 1.24485,-1.579993 2.29817,-1.915145 5.41028,-5.649675 3.11211,-3.734531 3.11211,-4.548468 0,-0.478786 -0.57454,-0.478786 -0.57455,0 -1.96303,0.239393 -1.3406,0.191515 -2.15453,0.766058 -0.57455,0.383029 -1.10121,0.383029 -0.47879,0 -1.14909,-1.627873 -0.62242,-1.627872 -0.62242,-2.250294 0,-1.053329 1.43636,-1.149086 1.48423,-0.143636 3.01635,-0.526665 1.53212,-0.383029 2.05878,-0.6703 0.57454,-0.287272 1.24484,-0.478786 0.71818,-0.239393 0.86182,-0.526665 0.14363,-0.33515 0.19151,-1.053329 0.33515,-8.091484 0.57455,-8.761784 0.23939,-0.6703 0.71817,-0.6703 0.52667,0 1.19697,0.239393 0.71818,0.239393 0.90969,0.383028 0.19152,0.143636 0.19152,0.430908 0,0.287271 -0.19152,0.574543 -0.57454,0.861815 -0.57454,6.032704 0,1.244843 0.0958,1.532115 0.0958,0.287272 0.47878,0.287272 0.38303,0 0.71818,-0.04788 0.33515,-0.09576 0.71818,-0.09576 0.38303,0 0.62242,0.33515 0.2394,0.33515 0.2394,1.579994 0,0.766057 -0.62243,1.292722 -1.14908,0.909693 -1.62787,1.388479 -0.43091,0.478786 -0.43091,0.813937 0,0.33515 0.0958,0.766057 0.0958,0.430908 0.23939,0.526665 1.00546,0.622422 1.81939,1.484236 0.81394,0.813937 0.81394,1.579994 0,0.766058 -1.14909,0.813937 -1.10121,0.04788 -1.48424,0.191514 -0.33515,0.143636 -0.33515,0.526665 -0.14363,2.968473 -0.4309,4.452709 -0.28727,1.484237 -0.28727,2.633324 0,1.149086 0,1.484236 0.0479,0.287272 0.28727,0.287272 0.47878,0 2.25029,-1.72363 1.81939,-1.771508 2.9206,-4.644224 1.1012,-2.920595 1.1012,-6.272097 0,-3.351502 -0.23939,-4.644224 -0.19151,-1.340601 -0.19151,-1.72363 0,-1.149086 0.81393,-1.196965 0.57455,-0.04788 1.48424,-0.383029 0.90969,-0.33515 2.82484,-1.388479 1.91514,-1.101208 3.68665,-1.963023 1.81939,-0.861815 2.05878,-0.861815 0.6703,0 0.6703,1.819387 0,1.149087 -0.76606,1.627873 -1.24484,0.957572 -2.05878,1.723629 -0.76606,0.718179 -1.91514,1.484237 -1.10121,0.718179 -1.86727,1.149086 -1.81938,1.149087 -1.81938,2.872716 0,0.909694 0.71817,0.909694 0.62243,0 2.39393,-0.287272 1.77151,-0.33515 3.20787,-0.813936 l 3.44726,-0.861815 q 1.3406,-0.33515 1.62787,-0.33515 z"
       id="text1"
       aria-label="成绩分析" /><path
       style="font-size:30.1252px;font-family:STXinwei;-inkscape-font-specification:'STXinwei, Normal';fill:#1296db;stroke-width:0.593016"
       d="m 107.28463,82.777721 q 1.14476,0.662754 2.53052,0.662754 1.50626,0 2.71126,-0.843506 1.20501,-0.843505 1.20501,-2.289515 0,-1.626761 -2.77152,-3.886151 -1.95813,-1.56651 -2.89201,-2.861894 -0.93389,-1.325508 -0.93389,-2.620892 0,-1.385759 1.05439,-3.042645 1.05438,-1.656886 3.01252,-2.681143 1.95813,-1.024257 3.73552,-1.024257 1.05438,0 1.62676,0.391628 0.57238,0.391627 0.57238,1.054382 0,0.783255 -0.75313,1.807512 -1.17488,-0.482003 -2.37989,-0.482003 -1.83764,0 -2.92214,0.933881 -1.08451,0.903756 -1.08451,2.440141 0,0.933881 0.482,1.687011 0.482,0.75313 2.07864,2.048514 1.92801,1.596635 2.95227,3.07277 1.05438,1.476135 1.05438,2.620893 0,1.56651 -1.14476,3.223396 -1.11463,1.626761 -2.89202,2.440141 -1.77738,0.813381 -3.43427,0.813381 -2.44014,0 -2.44014,-1.687012 0,-0.843505 0.63263,-1.777386 z m 21.59976,-8.947185 q -1.02425,-0.662754 -2.31964,-0.662754 -2.25939,0 -3.73552,1.687011 -1.47614,1.656886 -1.47614,4.097027 0,2.319641 1.35564,3.675275 1.35563,1.325508 3.52464,1.325508 1.95814,0 3.25353,-1.084507 0.54225,0.723005 0.54225,1.385759 0,0.903756 -1.05438,1.44601 -1.05438,0.542254 -2.92215,0.542254 -3.19327,0 -5.24178,-1.928013 -2.01839,-1.928013 -2.01839,-4.910408 0,-3.554773 2.44014,-6.055165 2.44014,-2.530517 5.93467,-2.530517 2.53051,0 2.53051,1.50626 0,0.783255 -0.81338,1.50626 z m 18.52699,4.338029 q 0,3.343897 -2.37989,5.723788 -2.34976,2.349766 -5.75391,2.349766 -3.43427,0 -5.57316,-2.108764 -2.13889,-2.108764 -2.13889,-5.422536 0,-3.494524 2.28951,-5.693663 2.31965,-2.19914 5.96479,-2.19914 3.31378,0 5.45267,2.078639 2.13888,2.078639 2.13888,5.27191 z m -13.31533,0.542254 q 0,2.37989 1.50626,3.916276 1.53638,1.50626 3.85602,1.50626 2.41002,0 3.91628,-1.626761 1.50626,-1.656886 1.50626,-4.097027 0,-2.440142 -1.50626,-3.976527 -1.47614,-1.56651 -3.85603,-1.56651 -2.44014,0 -3.9464,1.596635 -1.47613,1.596636 -1.47613,4.247654 z m 18.97888,-4.45853 q 2.16902,-3.07277 4.0669,-3.07277 0.81339,0 1.38576,0.542253 0.60251,0.512129 0.60251,1.265259 0,0.994131 -1.32551,1.928012 -0.45188,-1.265258 -1.41589,-1.265258 -0.69287,0 -1.50626,0.723005 -0.78325,0.692879 -1.56651,2.048513 -0.15062,1.50626 -0.15062,2.982395 0,4.036777 0.99413,5.784039 -1.20501,0.632629 -2.25939,0.632629 -0.75313,0 -1.02426,-0.301252 -0.241,-0.301252 -0.241,-1.566511 0,-0.482003 0.15063,-3.163146 0.15062,-2.711268 0.15062,-4.759781 0,-3.434273 -0.63263,-4.639281 0.69288,-0.210876 1.20501,-0.210876 0.69288,0 1.17489,0.361502 0.482,0.361502 0.482,1.50626 0,0.512128 -0.0904,1.205008 z m 18.58726,8.766433 q 0.63263,0.69288 0.63263,1.325509 0,0.873631 -1.14476,1.385759 -1.11463,0.512129 -3.13302,0.512129 -3.4644,0 -5.48279,-2.018389 -2.01839,-2.048513 -2.01839,-5.512911 0,-3.434273 2.01839,-5.663538 2.01839,-2.229265 5.15141,-2.229265 2.41002,0 3.97653,1.44601 1.56651,1.446009 1.56651,3.615024 0,1.717136 -1.32551,2.440141 -1.32551,0.69288 -4.63928,0.69288 -2.13889,0 -4.33803,-0.331378 -0.0904,2.500392 1.35563,4.006652 1.44601,1.476135 3.67528,1.476135 2.16901,0 3.7054,-1.144758 z m -8.55556,-6.08529 q 2.59077,0.331377 4.48865,0.331377 2.04852,0 2.65102,-0.331377 0.60251,-0.361503 0.60251,-1.235133 0,-1.38576 -0.93389,-2.19914 -0.90375,-0.843506 -2.53051,-0.843506 -1.65689,0 -2.80165,1.114633 -1.14475,1.114632 -1.47613,3.163146 z m 32.02305,2.078639 h -7.95305 q -1.17489,2.560642 -1.62677,3.946401 -0.45187,1.385759 -0.51212,2.801644 -0.42176,0.06025 -0.78326,0.06025 -1.92801,0 -1.92801,-1.536385 0,-0.723005 2.86189,-6.476918 2.71127,-5.392411 4.97066,-10.664321 -0.3615,-0.542254 -1.08451,-1.295384 1.02426,-1.295383 1.89789,-1.295383 0.63263,0 1.26526,0.87363 0.63263,0.873631 1.35563,2.711268 3.13302,7.983178 4.88029,11.869329 1.77738,3.856026 2.71126,4.669406 -1.05438,1.144758 -2.01838,1.144758 -0.87364,0 -1.86777,-1.687011 -0.964,-1.717137 -2.16901,-5.121284 z m -3.79578,-9.489438 -3.19327,7.471049 h 6.20579 q -1.86776,-4.940533 -3.01252,-7.471049 z m 15.12286,4.820032 q -0.1205,3.374022 -0.1205,5.39241 0,4.127153 0.69288,5.452662 -1.14476,0.632629 -2.10876,0.632629 -0.63263,0 -0.90376,-0.301252 -0.27113,-0.301252 -0.27113,-1.295384 0,-0.81338 0.12051,-3.675274 0.15062,-2.892019 0.15062,-4.639281 0,-3.343897 -0.69288,-4.880282 0.72301,-0.210877 1.29539,-0.210877 1.56651,0 1.74726,1.656886 1.02425,-0.75313 2.31964,-1.205008 1.32551,-0.451878 2.47026,-0.451878 1.14476,0 2.13889,0.391628 0.99413,0.391627 1.71714,1.235133 0.75313,0.81338 1.05438,2.138889 0.33138,1.295384 0.30125,3.554774 v 2.078639 q 0,2.199139 0.1205,3.13302 0.15063,0.933882 0.63263,1.807512 -1.32551,0.662755 -2.10876,0.662755 -0.72301,0 -0.99413,-0.391628 -0.241,-0.391627 -0.241,-1.717136 0,-0.69288 0.0904,-2.229265 0.0904,-1.536385 0.0904,-3.374022 0,-2.861894 -0.90376,-4.036777 -0.87363,-1.205008 -2.50039,-1.205008 -1.80751,0 -4.09703,1.476135 z m 25.72693,10.935447 q -1.23514,0.75313 -1.92802,0.75313 -1.0845,0 -1.205,-1.656886 -2.10877,1.867763 -4.36816,1.867763 -2.19914,0 -3.55477,-1.355634 -1.35563,-1.355634 -1.35563,-3.374023 0,-2.289515 1.86776,-3.675274 1.89789,-1.385759 5.06103,-1.385759 1.11463,0 2.28952,0.180751 0.0301,-0.301252 0.0301,-0.602504 0,-1.566511 -0.87363,-2.410016 -0.87363,-0.873631 -2.47027,-0.873631 -2.62089,0 -3.64514,1.837637 -1.08451,-0.271127 -1.08451,-1.295383 0,-1.054382 1.32551,-1.747262 1.32551,-0.723005 3.5849,-0.723005 2.59076,0 3.97652,1.325509 1.41589,1.325509 1.41589,3.735525 l -0.0904,3.675274 q 0,4.51878 1.02426,5.723788 z m -3.2234,-6.77817 q -1.26526,-0.210876 -2.31964,-0.210876 -2.16901,0 -3.31377,0.81338 -1.11463,0.783255 -1.11463,2.349766 0,1.265258 0.81338,1.988263 0.81338,0.69288 2.25939,0.69288 2.25939,0 3.7054,-1.626761 -0.0904,-1.867763 -0.0301,-4.006652 z m 10.33293,6.657669 q -1.20501,0.662755 -2.16901,0.662755 -0.57238,0 -0.90376,-0.301252 -0.33138,-0.301252 -0.33138,-1.928013 0,-1.235133 0.15063,-4.669406 0.18075,-3.464398 0.18075,-7.380674 0,-5.33216 -0.84351,-6.687794 1.20501,-0.662755 2.16902,-0.662755 0.78325,0 1.02426,0.421753 0.241,0.391628 0.241,1.44601 0,1.687011 -0.18075,4.789906 -0.15063,3.102896 -0.15063,7.892803 0,5.181534 0.81338,6.416667 z m 5.81418,5.15141 q 1.02426,-0.873631 1.56651,-1.777387 0.57238,-0.903756 1.53639,-2.892019 -2.50039,-5.934665 -3.9464,-8.736308 -1.44601,-2.801644 -2.68115,-3.133021 0.30125,-1.235133 0.84351,-1.897888 0.54225,-0.692879 1.17488,-0.692879 0.51213,0 0.78326,0.241001 0.27112,0.210877 0.66275,1.114633 0.42175,0.903756 1.41589,3.374022 1.35563,3.343897 3.10289,6.928796 2.37989,-5.181534 3.19327,-7.350549 0.81338,-2.169014 0.81338,-3.102895 0,-0.331378 -0.0904,-0.723005 0.30125,-0.150626 0.93388,-0.301252 0.66275,-0.180751 0.90375,-0.180751 1.14476,0 1.14476,1.084507 0,0.632629 -2.07864,4.940533 -2.86189,5.994914 -4.6694,10.754696 -1.53639,4.066902 -2.50039,4.066902 -0.93389,0 -2.10877,-1.717136 z M 259.38673,83.4706 q 0.99413,0.542254 1.95814,0.542254 1.05438,0 1.68701,-0.512129 0.66276,-0.512128 0.66276,-1.325508 0,-0.69288 -0.39163,-1.265259 -0.39163,-0.572379 -1.29538,-1.295383 -2.92215,-2.319641 -2.92215,-4.006652 0,-1.777387 1.71714,-3.283647 1.71713,-1.50626 4.12715,-1.50626 0.78326,0 1.11463,0.301252 0.33138,0.301252 0.33138,0.69288 0,0.482003 -0.57238,1.536385 -0.81338,-0.331377 -1.44601,-0.331377 -1.20501,0 -1.98826,0.602504 -0.75313,0.572379 -0.75313,1.536385 0,0.482003 0.54225,1.235133 0.54226,0.723005 1.50626,1.536385 1.53639,1.295384 1.98826,2.13889 0.48201,0.843505 0.48201,1.687011 0,1.687011 -1.68701,3.102895 -1.65689,1.38576 -3.5849,1.38576 -0.81338,0 -1.41589,-0.331377 -0.57238,-0.301252 -0.57238,-0.964007 0,-0.632629 0.51213,-1.476135 z m 11.89946,-18.436622 q 0.72301,0 1.23513,0.482003 0.51213,0.451878 0.51213,1.174883 0,0.843505 -0.57238,1.415884 -0.57238,0.542254 -1.50626,0.542254 -0.78325,0 -1.23513,-0.421753 -0.45188,-0.451878 -0.45188,-1.205008 0,-0.81338 0.57238,-1.385759 0.6025,-0.602504 1.44601,-0.602504 z m 1.86776,20.123633 q -1.20501,0.662755 -2.25939,0.662755 -0.69288,0 -0.964,-0.391628 -0.27113,-0.421753 -0.27113,-1.867762 0,-1.084507 0.1205,-2.95227 0.15063,-1.867762 0.15063,-3.8259 0,-3.434273 -0.75313,-4.940533 1.17488,-0.662754 2.25939,-0.662754 1.17488,0 1.17488,1.325508 l -0.18075,3.434273 q -0.0904,2.048514 -0.0904,3.76565 0,3.886151 0.81338,5.452661 z m 4.15731,-1.687011 q 0.99413,0.542254 1.95814,0.542254 1.05438,0 1.68701,-0.512129 0.66276,-0.512128 0.66276,-1.325508 0,-0.69288 -0.39163,-1.265259 -0.39163,-0.572379 -1.29538,-1.295383 -2.92215,-2.319641 -2.92215,-4.006652 0,-1.777387 1.71714,-3.283647 1.71713,-1.50626 4.12715,-1.50626 0.78326,0 1.11463,0.301252 0.33138,0.301252 0.33138,0.69288 0,0.482003 -0.57238,1.536385 -0.81338,-0.331377 -1.44601,-0.331377 -1.20501,0 -1.98826,0.602504 -0.75313,0.572379 -0.75313,1.536385 0,0.482003 0.54225,1.235133 0.54226,0.723005 1.50626,1.536385 1.53639,1.295384 1.98827,2.13889 0.482,0.843505 0.482,1.687011 0,1.687011 -1.68701,3.102895 -1.65689,1.38576 -3.5849,1.38576 -0.81338,0 -1.41589,-0.331377 -0.57238,-0.301252 -0.57238,-0.964007 0,-0.632629 0.51213,-1.476135 z"
       id="text1-3"
       inkscape:label="text1-3"
       aria-label="Score Analysis" /></g></svg>
