<?xml version="1.0" standalone="no"?><!DOCTYPE svg PUBLIC "-//W3C//DTD SVG 1.1//EN" "http://www.w3.org/Graphics/SVG/1.1/DTD/svg11.dtd"><svg t="1731723793269" class="icon" viewBox="0 0 1024 1024" version="1.1" xmlns="http://www.w3.org/2000/svg" p-id="6782" xmlns:xlink="http://www.w3.org/1999/xlink" width="200" height="200"><path d="M839.2 287.1h-669c-11 0-20-9-20-20s9-20 20-20h669c11 0 20 9 20 20s-8.9 20-20 20z" fill="#17A8FF" p-id="6783"></path><path d="M391.1 247.1l0.6-59.3c0-0.6 0.5-1.1 1.1-1.1H618c0.1 0 0.5 0 0.8 0.3 0.3 0.3 0.3 0.7 0.3 0.8l-0.6 59.3h40l0.6-58.8c0.1-11.1-4.1-21.5-11.9-29.3S629 146.8 618 146.8H392.8c-22.4 0-40.9 18.2-41.1 40.7l-0.6 59.7h40zM736.4 287.4V816H274.7V287.4h-40V836c0 11 9 20 20 20h501.7c11 0 20-9 20-20V287.4h-40z" fill="#17A8FF" p-id="6784"></path></svg>