<?xml version="1.0" standalone="no"?><!DOCTYPE svg PUBLIC "-//W3C//DTD SVG 1.1//EN" "http://www.w3.org/Graphics/SVG/1.1/DTD/svg11.dtd"><svg t="1731723751679" class="icon" viewBox="0 0 1024 1024" version="1.1" xmlns="http://www.w3.org/2000/svg" p-id="2435" xmlns:xlink="http://www.w3.org/1999/xlink" width="200" height="200"><path d="M889.263158 107.789474a53.894737 53.894737 0 0 0-49.852632-53.76L835.368421 53.894737H188.631579a53.894737 53.894737 0 0 0-53.76 49.852631L134.736842 107.789474v404.210526h215.578947v161.684211h323.368422v-161.684211h215.578947V107.789474zM296.421053 565.894737H53.894737v350.315789a53.894737 53.894737 0 0 0 49.852631 53.76L107.789474 970.105263h808.421052a53.894737 53.894737 0 0 0 53.76-49.852631L970.105263 916.210526V565.894737h-242.526316v107.789474a53.894737 53.894737 0 0 1-53.894736 53.894736H350.315789a53.894737 53.894737 0 0 1-53.894736-53.894736v-107.789474z m727.578947-53.894737v404.210526a107.789474 107.789474 0 0 1-107.789474 107.789474H107.789474a107.789474 107.789474 0 0 1-107.789474-107.789474V512h80.842105V107.789474a107.789474 107.789474 0 0 1 107.789474-107.789474h646.736842a107.789474 107.789474 0 0 1 107.789474 107.789474v404.210526h80.842105z" fill="#2A6AE1" p-id="2436"></path><path d="M215.578947 215.578947m26.947369 0l377.263158 0q26.947368 0 26.947368 26.947369l0 0q0 26.947368-26.947368 26.947368l-377.263158 0q-26.947368 0-26.947369-26.947368l0 0q0-26.947368 26.947369-26.947369Z" fill="#EA8C34" p-id="2437"></path><path d="M215.578947 377.263158m26.947369 0l242.526316 0q26.947368 0 26.947368 26.947368l0 0q0 26.947368-26.947368 26.947369l-242.526316 0q-26.947368 0-26.947369-26.947369l0 0q0-26.947368 26.947369-26.947368Z" fill="#EA8C34" p-id="2438"></path></svg>